<svg width="75" height="75" viewBox="0 0 75 75" fill="none" xmlns="http://www.w3.org/2000/svg">
<path d="M20.4548 10.2273H23.0114V2.55682H51.9886V5.11364H54.5455V0H20.4548V10.2273Z" fill="black"/>
<path d="M15.3412 54.5455H6.81846V11.9318H40.9092V17.0455H38.3523V14.4886H9.375V51.9886H15.3409L15.3412 54.5455Z" fill="black"/>
<path d="M34.0911 34.0909H39.2047V39.2045H42.6138V34.0909H47.7274V30.6818H42.6138V25.5682H39.2047V30.6818H34.0911V34.0909Z" fill="black"/>
<path d="M23.8639 44.3182H26.4205V21.3068H55.3977V53.6932H49.4316V56.25H57.9546V18.75H23.8639V44.3182Z" fill="black"/>
<path d="M40.9092 10.2273V6.81818H75L74.9997 49.4318H61.3634V46.875H72.4432V9.375H43.4659V10.2273H40.9092Z" fill="black"/>
<path d="M0 60.5114L20.4545 61.3636L21.3067 59.6591L24.7158 69.8864L28.9772 54.5455L33.2385 75L36.6476 59.6591L40.0567 66.4773L43.4657 57.1023L44.318 61.3636L74.9997 60.5114L46.0225 59.6591L43.4657 50.2841L40.0567 61.3636L36.6476 53.6932L33.2385 63.0682L28.9772 44.3182L24.7158 61.3636L21.3067 54.5455L18.7499 59.6591L0 60.5114Z" fill="black"/>
</svg>
